<svg width="63" height="56" viewBox="0 0 63 56" fill="none" xmlns="http://www.w3.org/2000/svg">
<path d="M58.6963 32.1568L12.3631 32.1568L26.5443 49.19C26.8727 49.585 27.12 50.0408 27.2722 50.5314C27.4243 51.0221 27.4784 51.5378 27.4312 52.0494C27.336 53.0824 26.8343 54.0353 26.0365 54.6984C25.2386 55.3615 24.2101 55.6805 23.1771 55.5853C22.144 55.49 21.1911 54.9883 20.528 54.1905L0.994606 30.7504C0.863186 30.564 0.745667 30.3681 0.643002 30.1644C0.643002 29.9691 0.44767 29.8519 0.369537 29.6565C0.192459 29.2086 0.0997467 28.7318 0.0960693 28.2501C0.0997467 27.7685 0.192459 27.2917 0.369537 26.8437C0.369537 26.6484 0.564869 26.5312 0.643002 26.3358C0.745667 26.1322 0.863186 25.9363 0.994606 25.7498L20.528 2.30973C20.8953 1.86874 21.3553 1.51409 21.8752 1.27101C22.3952 1.02793 22.9622 0.902396 23.5362 0.903328C24.449 0.901544 25.3336 1.21945 26.0365 1.80187C26.432 2.12983 26.759 2.53261 26.9987 2.98714C27.2384 3.44167 27.3861 3.93902 27.4332 4.45071C27.4804 4.96239 27.4262 5.47836 27.2737 5.96905C27.1211 6.45975 26.8733 6.91553 26.5443 7.31029L12.3631 24.3434L58.6963 24.3434C59.7325 24.3434 60.7261 24.755 61.4588 25.4877C62.1914 26.2203 62.603 27.214 62.603 28.2501C62.603 29.2862 62.1914 30.2799 61.4588 31.0126C60.7261 31.7452 59.7325 32.1568 58.6963 32.1568Z" fill="#56191B"/>
</svg>
